<svg class="icon" viewBox="0 0 128 128" xmlns="http://www.w3.org/2000/svg" width="128" height="128"><path d="M973.824 551.526H50.176c-19.66 0-35.43-15.974-35.43-35.43s15.974-35.43 35.43-35.43h923.648c19.66 0 35.43 15.974 35.43 35.43s-15.77 35.43-35.43 35.43zM867.328 977.92H654.131c-19.66 0-35.43-15.974-35.43-35.43s15.974-35.43 35.43-35.43h213.197c19.66 0 35.43-15.975 35.43-35.431V694.067c0-19.66 15.975-35.43 35.43-35.43s35.431 15.974 35.431 35.43V871.63c.205 58.368-47.513 106.291-106.291 106.291zm-532.89 0H156.877c-58.778 0-106.496-47.718-106.496-106.496V693.862c0-19.66 15.974-35.43 35.43-35.43s35.43 15.974 35.43 35.43v177.562c0 19.66 15.975 35.43 35.431 35.43h177.562c19.66 0 35.43 15.975 35.43 35.43s-15.565 35.636-35.226 35.636zM85.811 373.965c-19.66 0-35.43-15.975-35.43-35.43V160.767c0-58.778 47.718-106.496 106.496-106.496h177.561c19.661 0 35.43 15.974 35.43 35.43s-15.974 35.43-35.43 35.43H156.877c-19.661 0-35.43 15.975-35.43 35.431v177.562c-.205 19.865-16.18 35.84-35.636 35.84zm852.583 0c-19.661 0-35.43-15.975-35.43-35.43V160.767c0-19.66-15.975-35.43-35.431-35.43H654.13c-19.66 0-35.43-15.975-35.43-35.43s15.974-35.431 35.43-35.431h213.197c58.778 0 106.496 47.718 106.496 106.496v177.561c0 19.456-15.974 35.43-35.43 35.43z"/></svg>