<?xml version="1.0" standalone="no"?>
<!DOCTYPE svg PUBLIC "-//W3C//DTD SVG 1.1//EN" "http://www.w3.org/Graphics/SVG/1.1/DTD/svg11.dtd" >
<!--
2013-9-30: Created.
-->
<svg>
<metadata>
Created by iconfont
</metadata>
<defs>

<font id="iconfont" horiz-adv-x="1024" >
  <font-face
    font-family="iconfont"
    font-weight="500"
    font-stretch="normal"
    units-per-em="1024"
    ascent="896"
    descent="-128"
  />
    <missing-glyph />
    
    <glyph glyph-name="shebei" unicode="&#59028;" d="M932.4 519.8c-17.7 41.8-43 79.4-75.2 111.6-32.2 32.2-69.8 57.5-111.6 75.2-43.3 18.3-89.3 27.6-136.7 27.6s-93.4-9.3-136.7-27.6c-41.8-17.7-79.4-43-111.6-75.2-32.2-32.2-57.5-69.8-75.2-111.6-5.5-13-10.2-26.3-14.1-39.8L320 480l18.5 0 67 0L480 480l0.1 0c29.2 38.8 75.7 64 127.9 64 88.2 0 160-71.8 160-160 0-88.2-71.8-160-160-160L451.3 224l-81.5 0-74 0L32 224l0 0c0-35.3 28.7-64 64-64l241.8 0c7.2-8.7 14.8-17.1 22.9-25.2 25.9-25.9 55.2-47.3 87.4-63.9l0-39 320 0 0 38c32.9 16.7 62.8 38.4 89.2 64.8 32.2 32.2 57.5 69.8 75.2 111.6 18.3 43.3 27.6 89.3 27.6 136.7S950.7 476.5 932.4 519.8zM811.9 180.1c-54.2-54.2-126.3-84.1-203-84.1-66.6 0-129.8 22.5-180.7 64L608 160c59.8 0 116.1 23.3 158.4 65.6C808.7 267.9 832 324.2 832 384c0 59.8-23.3 116.1-65.6 158.4C724.1 584.7 667.8 608 608 608c-59.1 0-114.6-22.7-156.7-64L371 544c10.2 15 21.8 29.1 34.9 42.1 54.2 54.2 126.3 84.1 203 84.1s148.8-29.9 203-84.1c54.2-54.2 84.1-126.3 84.1-203C896 306.4 866.1 234.3 811.9 180.1zM704 304 704 304l-624 0c-26.5 0-48-21.5-48-48l0 0 624 0C682.5 256 704 277.5 704 304zM608 384m-64 0a64 64 0 1 0 128 0 64 64 0 1 0-128 0ZM544 320c0 70.7-57.3 128-128 128L248.7 448 68.9 421.4C47.7 418.3 32 400.1 32 378.7L32 323 544 320 544 320z"  horiz-adv-x="1024" />

    
    <glyph glyph-name="dr" unicode="&#58896;" d="M890.67008 719.34976A507.88352 507.88352 0 0 1 508.22144 889.84064a503.03488 503.03488 0 0 1-365.8752-156.21632 34.03776 34.03776 0 0 1 49.01376-46.976 435.62496 435.62496 0 0 0 316.86144 136.1408c243.04128 0.77312 440.71936-195.61984 441.49248-438.67136 0.75776-243.05664-195.6352-440.70912-438.68672-441.48224a440.064 440.064 0 0 0-283.25376 102.0928h278.0672c187.9808 0 340.36736 152.39168 340.36736 340.36736S693.82144 725.4528 505.84064 725.4528a34.03776 34.03776 0 0 1 0-68.07552c150.37952 0.0512 272.32768-121.81504 272.37888-272.19456 0.0512-150.37952-121.82016-272.32768-272.19456-272.37888H33.9968a34.03264 34.03264 0 0 1 0-68.06528h97.45408c186.2912-209.65376 507.264-228.58752 716.90752-42.30144 209.65888 186.28096 228.59264 507.24864 42.31168 716.91264zM537.02656 368.0768a77.89568 77.89568 0 0 1 43.56096 24.84224 81.32096 81.32096 0 0 1 16 54.45632 105.66144 105.66144 0 0 1-6.4768 39.14752 58.09664 58.09664 0 0 1-18.7136 25.18016 76.81536 76.81536 0 0 1-30.96576 13.28128 209.64352 209.64352 0 0 1-42.55232 3.73248H437.28896a119.75168 119.75168 0 0 1-17.3568 0c-3.77344-0.3072-7.424-1.5872-10.54208-3.73248a14.67904 14.67904 0 0 1-5.11488-8.17152c-0.59392-4.6336-0.59392-9.3184 0-13.952v-240.63488a22.15424 22.15424 0 0 1 5.7856-14.30016 24.8832 24.8832 0 0 1 20.09088-6.8096 28.65664 28.65664 0 0 1 20.7616 6.47168 20.36224 20.36224 0 0 1 6.4512 14.63808v98.70336l108.24192-114.02752a22.48192 22.48192 0 0 1 18.37056-6.1184 29.92128 29.92128 0 0 1 19.74784 8.85248 24.48384 24.48384 0 0 1 7.81824 18.71872 27.52512 27.52512 0 0 1-8.50432 18.71872l-79.9744 78.96064h8.50432l5.45792 2.04288zM497.54112 409.6h-42.5472V481.7408h42.88a101.34528 101.34528 0 0 0 17.36192 0 41.1648 41.1648 0 0 0 14.63808-5.43744 27.60704 27.60704 0 0 0 9.86624-10.89536 37.36576 37.36576 0 0 0 3.7376-17.69984 34.02752 34.02752 0 0 0-11.57632-29.952A65.8176 65.8176 0 0 0 497.54112 409.6zM168.41728 243.84512H246.016a126.44352 126.44352 0 0 1 52.7616 10.2144 102.02112 102.02112 0 0 1 37.43744 28.91776 123.94496 123.94496 0 0 1 22.46144 45.26592 217.00096 217.00096 0 0 1 7.5008 58.55232c0.14848 18.944-2.24256 37.84192-7.15264 56.15616a124.94336 124.94336 0 0 1-22.12352 44.928 102.05696 102.05696 0 0 1-38.12352 29.952 128.256 128.256 0 0 1-54.79424 10.88512H168.4224a24.1408 24.1408 0 0 1-18.3808-4.7616 21.7856 21.7856 0 0 1-3.74272-13.6192v-247.77728a21.1456 21.1456 0 0 1 3.74272-13.6192 24.13568 24.13568 0 0 1 18.37568-5.0944z m30.63296 241.98144l0.33792 0.34816h36.42368a92.13952 92.13952 0 0 0 37.09952-6.46144 57.23136 57.23136 0 0 0 23.81824-19.06688 78.46912 78.46912 0 0 0 12.5952-30.96576c2.60096-13.68576 3.86048-27.60192 3.74272-41.53344 0-68.06528-22.68672-102.10816-68.07552-102.10816h-45.94176V485.82656z"  horiz-adv-x="1024" />

    
    <glyph glyph-name="arrows-2-7-copy-copy-copy" unicode="&#58881;" d="M68.18257088 433.71026963c32.30477108 0 58.49103643-26.18626538 58.49103642-58.49241727 0-32.29924769-26.18626538-58.48965558-58.49103642-58.48965558s-58.49103643 26.19040787-58.49103642 58.48965558c0 32.30477108 26.1876462 58.49241729 58.49103642 58.49241727zM277.87495396 433.71026963c32.30477108 0 58.49241729-26.1876462 58.49241728-58.49241727 0-32.29924769-26.1876462-58.48965558-58.49241728-58.49103641s-58.49103643 26.19040787-58.49103641 58.48965557c0 32.30477108 26.1876462 58.49241729 58.49103641 58.49241726zM508.89928956 433.71026963c32.30477108 0 58.49103643-26.18626538 58.49103641-58.49241727 0-32.29924769-26.18626538-58.48965558-58.49103641-58.48965558s-58.49241726 26.19040788-58.49241728 58.49103643c0.00138084 32.3061519 26.1876462 58.49241729 58.49241727 58.49241726zM718.59305349 433.71026963c32.30339021 0 58.49241729-26.1876462 58.49241725-58.49241727 0-32.29924769-26.1876462-58.48965558-58.49241725-58.49103641s-58.49241726 26.19040788-58.49241727 58.49103641c0 32.30477108 26.1876462 58.49241729 58.49241727 58.49241727zM1007.42330154 401.55143166l-203.79312514 203.79389762c-9.34309959 9.33846474-27.27149963 6.55600548-40.04748346-6.22384071-12.77521134-12.77598382-15.56462287-30.70824623-6.22306823-40.04980088l175.07400515-175.07555007-175.06937029-175.0716877c-9.34078215-9.33691978-6.55137063-27.27613447 6.22306823-40.04516602 12.77598382-12.77752876 30.70283889-15.56307796 40.04748343-6.230793l203.79312517 203.79544258c4.41470146 4.40929414 6.08711242 10.75209616 5.31154632 17.55143166 0.77170373 6.80088043-0.90147971 13.13673019-5.31618117 17.55606652z"  horiz-adv-x="1024" />

    
    <glyph glyph-name="yuyuechenggong" unicode="&#58985;" d="M145.282082 10.909564a42.805465 42.805465 0 1 1 42.805465-42.805465 42.638907 42.638907 0 0 1-42.805465 42.805465z m0-58.961613a16.655823 16.655823 0 1 0 16.655823 16.655823 16.655823 16.655823 0 0 0-16.655823-16.822382zM1275.712791 30.896552a57.129473 57.129473 0 1 1 57.129473-57.129473 56.629798 56.629798 0 0 1-57.129473 57.129473z m0-86.61028a30.480156 30.480156 0 1 0 0 60.960312 30.14704 30.14704 0 0 0 30.480156-30.480156 30.646714 30.646714 0 0 0-30.480156-30.646714zM412.941158 810.222511a42.805465 42.805465 0 1 1-42.805465 42.805466 42.638907 42.638907 0 0 1 42.805465-42.805466z m0 58.961614a16.655823 16.655823 0 0 0 16.655823-16.655823 16.655823 16.655823 0 0 0-16.655823-16.655823 16.655823 16.655823 0 1 0 0 32.312297zM113.969135 289.8946a14.657124 14.657124 0 0 1-14.324008 14.324008H71.996461v27.482108a14.324008 14.324008 0 1 1-28.648016 0v-27.648667H15.866337a14.324008 14.324008 0 1 1 0-28.481457h27.648666v-27.648666a14.324008 14.324008 0 0 1 28.648016 0v27.648666H99.811685a14.657124 14.657124 0 0 1 14.15745 14.324008zM1030.872193 773.080026h27.648666V746.097593a14.324008 14.324008 0 0 1 28.648015 0V773.080026h27.648667a14.324008 14.324008 0 0 1 0 28.481457h-27.648667V829.376708a14.324008 14.324008 0 1 1-28.648015 0v-27.648666H1030.872193a14.324008 14.324008 0 1 1 0-28.481458zM1039.533221 423.141184V521.243982a90.441119 90.441119 0 0 1-90.44112 90.441119H850.989304l-69.62134 69.454782a90.274561 90.274561 0 0 1-127.583605 0L584.496135 611.685101h-98.269356a90.441119 90.441119 0 0 1-90.441119-90.441119v-98.102798l-69.454782-69.454782a90.274561 90.274561 0 0 1 0-127.583604l69.454782-69.454782v-98.102798a90.441119 90.441119 0 0 1 90.441119-90.441119H584.496135l69.454782-69.454782a90.274561 90.274561 0 0 1 127.583605 0L850.989304-32.062459h98.102797a90.441119 90.441119 0 0 1 90.44112 90.441119V156.481457l69.454782 69.454782a90.274561 90.274561 0 0 1 0 127.583605zM914.781106 379.669486L686.263214 150.818478a35.81002 35.81002 0 0 0-31.479505-10.493169 29.480807 29.480807 0 0 0-7.661679 1.832141 24.48406 24.48406 0 0 0-12.658426 7.661678l-114.258946 114.258946a36.975927 36.975927 0 0 0 52.299285 52.299284l88.608978-88.608978L863.314613 429.636955a38.141835 38.141835 0 0 0 51.466493 1.832141 37.309044 37.309044 0 0 0 0-51.79961z"  horiz-adv-x="1332" />

    
    <glyph glyph-name="jiantouarrowheads3" unicode="&#58882;" d="M476.416 674.8364799999999c-20.89984 20.89984-20.89984 54.80448 0 75.70432 20.89984 20.91008 54.79424 20.91008 75.70432 0l328.704-328.69376c10.4448-10.45504 15.6672-24.14592 15.6672-37.84704s-5.23264-27.40224-15.6672-37.84704l-328.704-328.69376c-20.91008-20.91008-54.80448-20.91008-75.70432 0-20.89984 20.89984-20.89984 54.79423999 0 75.70432L767.25248 384 476.416 674.8364799999999zM434.03264 384l-290.83648-290.83648c-20.89984-20.91008-20.89984-54.80448 0-75.70432 20.89984-20.91008 54.79424-20.91008 75.70432 0l328.704 328.69376c10.4448 10.45504 15.6672 24.14592 15.6672 37.84704s-5.23264 27.40224-15.6672 37.84704l-328.704 328.69376c-20.91008 20.91008-54.80448 20.91008-75.70432 0-20.89984-20.89984-20.89984-54.80448 0-75.70432L434.03264 384z"  horiz-adv-x="1024" />

    
    <glyph glyph-name="yiyuan" unicode="&#58946;" d="M810.084 42.624V490.667A21.333 21.333 0 0 1 788.75 512H682.667v64h116.707c41.259 0 74.71-33.45 74.71-74.71v-458.666h53.788a32.043 32.043 0 1 0 0-64.1H96a32.028 32.028 0 0 0 0 64.072l53.32 0.028V741.646a69.02 69.02 0 0 0 69.034 69.02l395.292-0.042a69.02 69.02 0 0 0 69.02-69.02v-698.98h127.418z m-191.417 0.043v704H213.333v-704h405.334z m-64 352a32 32 0 0 0-32-32H309.333a32 32 0 1 0 0 64h213.334a32 32 0 0 0 32-32z m0-128a32 32 0 0 0-32-32H309.333a32 32 0 1 0 0 64h213.334a32 32 0 0 0 32-32zM384 554.667v-28.004c0-19.883 14.336-35.996 32-35.996 17.678 0 32 16.113 32 35.996v28.004h28.004c19.882 0 35.996 14.321 35.996 32 0 17.664-16.114 32-35.996 32H448V646.67c0 19.883-14.322 35.997-32 35.997-17.664 0-32-16.114-32-35.997v-28.003h-28.004c-19.882 0-35.996-14.336-35.996-32 0-17.679 16.114-32 35.996-32H384z m170.667-416a32 32 0 0 0-32-32H309.333a32 32 0 1 0 0 64h213.334a32 32 0 0 0 32-32z"  horiz-adv-x="1024" />

    
    <glyph glyph-name="Bchao" unicode="&#59026;" d="M43.428732-42.660849h938.614304a42.681212 42.681212 0 1 0 0-85.315879H43.428732a42.681212 42.681212 0 1 0 0 85.315879zM261.954674 896h501.562419c208.984341-406.332583 292.531533-629.838776 250.78121-670.472035-62.695302-60.97316-250.78121-182.82639-501.562419-182.82639S73.868767 164.60135 11.173465 225.527965C-30.576859 266.161224 52.970333 489.667417 261.954674 896zM122.461117 393.739415c-19.083203-50.966114-30.626213-90.389218-34.815208-116.779891a181.755869 181.755869 0 0 1-0.744711-5.026795C175.800996 196.065362 340.195805 128.017454 512.735884 128.017454c172.540079 0 336.934888 68.047908 425.834685 143.915275a181.755869 181.755869 0 0 1-0.74471 5.026795c-4.188996 26.390673-15.732006 65.813777-34.815209 116.779891-37.235517 99.558465-101.234063 238.772755-191.71637 416.944706H314.177488c-90.482307-178.171951-154.480853-317.432786-191.716371-416.944706z m238.633122 125.437149a42.681212 42.681212 0 1 0 47.289107 70.980205c35.978819-23.970364 70.561305-35.46683 104.352538-35.46683s68.373719 11.496466 104.352537 35.46683a42.681212 42.681212 0 0 0 47.289107-70.980205c-49.337061-32.906888-100.070453-49.802504-151.641644-49.802504-51.524647 0-102.304584 16.895616-151.641645 49.802504z m-91.878639-165.325697a42.681212 42.681212 0 1 0 60.368083 60.321538c48.731983-48.731983 108.913888-72.841981 183.152201-72.841981 74.191768 0 134.420218 24.109998 183.152201 72.841981a42.681212 42.681212 0 1 0 60.368083-60.321538c-65.069067-65.022522-147.080294-97.836322-243.520284-97.836322-96.486534 0-178.451217 32.8138-243.520284 97.836322z"  horiz-adv-x="1026" />

    
    <glyph glyph-name="CT" unicode="&#59027;" d="M512-42.682182a426.682182 426.682182 0 1 1 0 853.364364 426.682182 426.682182 0 0 1 0-853.364364zM512-128C229.236364-128 0 101.236364 0 384S229.236364 896 512 896s512-229.236364 512-512-229.236364-512-512-512z m341.317818 512a341.317818 341.317818 0 1 1-682.635636 0A42.682182 42.682182 0 0 1 256 384a256 256 0 0 0 512 0 42.682182 42.682182 0 1 1 85.317818 0z m-426.635636-256v-170.682182h170.635636V128H426.682182z m-85.364364 85.317818h341.364364V-128H341.317818v341.317818z m0 0h341.364364v42.682182H341.317818v-42.682182z m0 128h341.364364c47.104 0 85.317818-38.167273 85.317818-85.317818v-128h-512v128c0 47.150545 38.167273 85.317818 85.317818 85.317818z"  horiz-adv-x="1024" />

    
    <glyph glyph-name="yanzhengma" unicode="&#59061;" d="M137.48 71.93a57 57 0 0 0-56.94 56.94V637.35a57 57 0 0 0 56.94 56.94h568.94a39.91 39.91 0 0 1 0 79.82H137.48C62.08 774.11 0.74 712.76 0.74 637.35v-508.47c0-75.41 61.34-136.76 136.74-136.76a39.91 39.91 0 0 1 0 79.82z m557.14 387a39.91 39.91 0 0 1 1.66-56.42l20.56-19.39-20.56-19.39A39.91 39.91 0 1 1 751 305.65l24 22.62 24-22.62a39.91 39.91 0 0 1 54.75 58.08l-20.56 19.39 20.56 19.39A39.91 39.91 0 1 1 799 460.58L775 438l-24 22.61a39.9 39.9 0 0 1-56.38-1.69zM888 774.11a39.91 39.91 0 0 1 0-79.82 57 57 0 0 0 56.94-56.94v-508.47A57 57 0 0 0 888 71.93H319.06a39.91 39.91 0 0 1 0-79.82H888c75.4 0 136.74 61.35 136.74 136.76V637.35c0 75.41-61.34 136.76-136.74 136.76zM593.13 458.92a39.9 39.9 0 0 1-56.41 1.66l-24-22.61-24 22.61A39.91 39.91 0 0 1 434 402.5l20.56-19.39L434 363.73a39.91 39.91 0 1 1 54.75-58.08l24 22.61 24-22.61a39.91 39.91 0 0 1 54.75 58.08l-20.56 19.39 20.56 19.39a39.91 39.91 0 0 1 1.63 56.41zM330.86 307.31a39.91 39.91 0 0 1-1.66 56.42l-20.56 19.39 20.56 19.38a39.91 39.91 0 0 1-54.75 58.08l-24-22.61-24 22.61a39.91 39.91 0 0 1-54.75-58.08l20.56-19.39-20.56-19.39a39.91 39.91 0 1 1 54.75-58.08l24 22.61 24-22.61a39.9 39.9 0 0 1 56.41 1.66z"  horiz-adv-x="1024" />

    
    <glyph glyph-name="activity" unicode="&#59102;" d="M800 50.912c0-1.76-0.736-2.784-0.096-2.88l-574.656-0.416C224.992 47.808 224 48.96 224 50.912v477.12h576v-477.12zM224 685.12c0 1.728 0.64 2.752 0.096 2.912H352V672a32 32 0 1 1 64 0v16h192V672a32 32 0 1 1 64 0v16h127.008a4.736 4.736 0 0 0 0.992-2.88V592H224V685.12zM799.84 752H672V768a32 32 0 0 1-64 0v-16h-192V768a32 32 0 0 1-64 0v-16H223.712C188.576 752 160 721.984 160 685.12V50.88c0-36.896 28.608-66.88 63.744-66.88h576.512c35.136 0 63.744 29.984 63.744 66.88V685.12c0 36.896-28.768 66.912-64.16 66.912zM384 336h256a32 32 0 0 1 0 64h-256a32 32 0 0 1 0-64M384 176h256a32 32 0 0 1 0 64h-256a32 32 0 0 1 0-64"  horiz-adv-x="1024" />

    
    <glyph glyph-name="addition" unicode="&#59104;" d="M512 64c-176.448 0-320 143.552-320 320S335.552 704 512 704s320-143.552 320-320-143.552-320-320-320m0 704C300.256 768 128 595.744 128 384s172.256-384 384-384 384 172.256 384 384S723.744 768 512 768M683.936 425.056H544v139.968a32 32 0 1 1-64 0v-139.968h-139.936a32 32 0 0 1 0-64H480v-139.968a32 32 0 0 1 64 0v139.968h139.968a32 32 0 0 1 0 64"  horiz-adv-x="1024" />

    
    <glyph glyph-name="barrage" unicode="&#59107;" d="M288 320h128a32 32 0 0 1 0 64H288a32 32 0 0 1 0-64M288 192h128a32 32 0 0 1 0 64H288a32 32 0 0 1 0-64M288 448h256a32 32 0 0 1 0 64H288a32 32 0 0 1 0-64M831.936 128L192 127.776V640.224L192.096 640 832 640.224 831.936 128z m0 576H192.096A64 64 0 0 1 128 640.224v-512.448A64 64 0 0 1 192.096 64h639.84A64 64 0 0 1 896 127.776V640.224A64 64 0 0 1 831.936 704z"  horiz-adv-x="1024" />

    
    <glyph glyph-name="lock_fill" unicode="&#59145;" d="M394.304 579.392A124.672 124.672 0 0 0 518.72 704a124.704 124.704 0 0 0 124.48-124.608V480h-248.896V579.392zM544 192a32 32 0 0 0-64 0v128a32 32 0 0 0 64 0v-128z m256.256 288H707.2V579.392A188.736 188.736 0 0 1 518.72 768c-103.904 0-188.416-84.608-188.416-188.608V480h-106.56A64 64 0 0 1 160 415.904v-319.84A64 64 0 0 1 223.744 32h576.512A64 64 0 0 1 864 96.064v319.84A64 64 0 0 1 800.256 480z"  horiz-adv-x="1024" />

    
    <glyph glyph-name="mobilephone" unicode="&#59151;" d="M735.968 96L288 95.744V224h447.968v-128zM288 672.256L288.032 672 736 672.256 735.968 288H288V672.256zM735.968 736H288.032A63.968 63.968 0 0 1 224 672.256v-576.512C224 60.608 252.704 32 288.032 32h447.936A63.968 63.968 0 0 1 800 95.744V672.256A63.968 63.968 0 0 1 735.968 736zM480 128h64a32 32 0 0 1 0 64h-64a32 32 0 0 1 0-64"  horiz-adv-x="1024" />

    
    <glyph glyph-name="people_fill" unicode="&#59157;" d="M813.728 256c-3.904 1.728-58.56 25.6-129.312 45.792a883.616 883.616 0 0 1-72.608 17.568c36.096 30.592 59.552 75.68 59.552 126.656v123.104A167.168 167.168 0 0 1 504.192 736c-92.16 0-167.2-74.72-167.2-166.88v-123.104c0-52.352 24.768-98.624 62.72-129.248-25.472-5.408-50.112-11.904-72.8-18.688a1098.656 1098.656 0 0 1-115.648-41.664C182.016 244.672 160 211.808 160 180v-131.68l1.696-4.992c9.504-27.936 35.136-46.688 63.808-46.688h572.992a65.536 65.536 0 0 1 64.96 56.96l0.544 126.4c0 31.584-21.952 64.384-50.272 76"  horiz-adv-x="1024" />

    
    <glyph glyph-name="search" unicode="&#59201;" d="M192 416a256 256 0 1 0 512 0 256 256 0 0 0-512 0m631.776-362.496l-143.2 143.168A318.464 318.464 0 0 1 768 416c0 176.736-143.264 320-320 320S128 592.736 128 416s143.264-320 320-320a318.016 318.016 0 0 1 184.16 58.592l146.336-146.368c12.512-12.48 32.768-12.48 45.28 0 12.48 12.512 12.48 32.768 0 45.28"  horiz-adv-x="1024" />

    
    <glyph glyph-name="guanbi" unicode="&#58880;" d="M512.007775 896a511.992716 511.992716 0 1 1 511.992715-511.298958A511.992716 511.992716 0 0 1 512.007775 896z m219.227233-664.61927a47.869238 47.869238 0 1 0-65.906921-69.375707L512.007775 318.100363l-153.320312-152.626555a49.048625 49.048625 0 1 0-69.375707 69.375707l152.626555 153.320312-152.626555 152.626555a49.048625 49.048625 0 0 0 69.375707 69.375706l153.320312-159.564125 153.320312 153.320312a47.869238 47.869238 0 0 0 65.906921-69.375707l-152.626555-152.626555z"  horiz-adv-x="1024" />

    
    <glyph glyph-name="guanbi1" unicode="&#58969;" d="M512-64C264.6-64 64 136.6 64 384S264.6 832 512 832s448-200.6 448-448-200.6-448-448-448z m0 59.7c214.4 0 388.3 173.8 388.3 388.3S726.4 772.3 512 772.3 123.7 598.4 123.7 384 297.6-4.3 512-4.3zM660.8 278.4c11.9-11.9 11.9-31.2 0-43.1-11.9-11.9-31.2-11.9-43.1 0l-99.6 99.6-99.6-99.6c-11.9-11.9-31.2-11.9-43.1 0-11.9 11.9-11.9 31.2 0 43.1L475 378l-99.6 99.6c-11.9 11.9-11.9 31.2 0 43.1 11.9 11.9 31.2 11.9 43.1 0l99.6-99.6 99.6 99.6c11.9 11.9 31.2 11.9 43.1 0 11.9-11.9 11.9-31.2 0-43.1L561.2 378l99.6-99.6z"  horiz-adv-x="1024" />

    
    <glyph glyph-name="jiantou" unicode="&#58945;" d="M379.8125 795.79166667L807.31250002 366.88541667000004 379.8125-62.02083332999996l-112.5 111.09375 322.03124999 317.8125L260.28125 698.7604166799999 369.96875 805.63541667z"  horiz-adv-x="1024" />

    
    <glyph glyph-name="xindian-" unicode="&#58891;" d="M944 809.6H76.8c-19.2 0-32-16-32-32v-796.8c0-19.2 16-32 32-32h867.2c19.2 0 32 16 32 32V774.4c0 19.2-16 35.2-32 35.2z m-41.6-76.8v-489.6H118.4v192H281.6c9.6 0 22.4 3.2 28.8 19.2l60.8 118.4 128-252.8c9.6-16 22.4-19.2 28.8-19.2 9.6 0 22.4 3.2 28.8 19.2l83.2 163.2 16-32c9.6-16 22.4-19.2 28.8-19.2h89.6c19.2 0 32 12.8 32 32s-12.8 32-32 32H704l-35.2 70.4c-3.2 9.6-16 19.2-28.8 19.2s-25.6-6.4-28.8-19.2l-83.2-163.2-128 252.8c-3.2 9.6-16 19.2-28.8 19.2s-25.6-6.4-28.8-19.2l-80-160H118.4V732.8h784zM118.4 19.2v156.8h784v-156.8H118.4z m0 0M342.4 99.2c0-19.2 16-32 32-32 19.2 0 32 16 32 32 0 19.2-16 32-32 32s-32-12.8-32-32z m0 0M476.8 99.2c0-19.2 16-32 32-32 19.2 0 32 16 32 32 0 19.2-16 32-32 32-19.2 0-32-12.8-32-32z m0 0M608 99.2c0-19.2 16-32 32-32 19.2 0 32 16 32 32 0 19.2-16 32-32 32s-32-12.8-32-32z m0 0"  horiz-adv-x="1024" />

    


  </font>
</defs>
</svg>
